<svg width="408" height="150" viewBox="0 0 408 150" fill="none" xmlns="http://www.w3.org/2000/svg">
<path d="M0.396188 112.224V97.664L74.8602 2.39999H97.3242L23.4842 97.664L12.8762 94.336H129.148V112.224H0.396188ZM81.3082 148V112.224L81.9322 94.336V62.72H101.484V148H81.3082ZM201.105 149.664C189.734 149.664 179.542 146.752 170.529 140.928C161.654 135.104 154.582 126.645 149.313 115.552C144.182 104.459 141.617 91.008 141.617 75.2C141.617 59.392 144.182 45.9413 149.313 34.848C154.582 23.7547 161.654 15.296 170.529 9.472C179.542 3.648 189.734 0.735999 201.105 0.735999C212.337 0.735999 222.459 3.648 231.473 9.472C240.486 15.296 247.558 23.7547 252.689 34.848C257.819 45.9413 260.385 59.392 260.385 75.2C260.385 91.008 257.819 104.459 252.689 115.552C247.558 126.645 240.486 135.104 231.473 140.928C222.459 146.752 212.337 149.664 201.105 149.664ZM201.105 131.152C208.731 131.152 215.387 129.072 221.073 124.912C226.897 120.752 231.403 114.512 234.593 106.192C237.921 97.872 239.585 87.5413 239.585 75.2C239.585 62.8587 237.921 52.528 234.593 44.208C231.403 35.888 226.897 29.648 221.073 25.488C215.387 21.328 208.731 19.248 201.105 19.248C193.478 19.248 186.753 21.328 180.929 25.488C175.105 29.648 170.529 35.888 167.201 44.208C164.011 52.528 162.417 62.8587 162.417 75.2C162.417 87.5413 164.011 97.872 167.201 106.192C170.529 114.512 175.105 120.752 180.929 124.912C186.753 129.072 193.478 131.152 201.105 131.152ZM278.271 112.224V97.664L352.735 2.39999H375.199L301.359 97.664L290.751 94.336H407.023V112.224H278.271ZM359.183 148V112.224L359.807 94.336V62.72H379.359V148H359.183Z" fill="#14233D"/>
</svg>
