<svg width="1038" height="664" viewBox="0 0 1038 664" fill="none" xmlns="http://www.w3.org/2000/svg">
<path d="M130.164 530.144C138.694 532.938 145.46 537.645 150.46 544.263C155.461 550.735 157.961 558.824 157.961 568.531C157.961 581.915 152.814 592.284 142.518 599.638C132.223 606.845 117.221 610.448 97.5125 610.448H20.7379V456.017H93.1002C111.338 456.017 125.384 459.62 135.238 466.827C145.092 473.887 150.019 483.667 150.019 496.169C150.019 503.817 148.254 510.582 144.724 516.466C141.195 522.349 136.341 526.908 130.164 530.144ZM49.4181 478.52V521.099H90.0115C100.013 521.099 107.661 519.334 112.956 515.804C118.398 512.127 121.118 506.832 121.118 499.919C121.118 492.86 118.398 487.565 112.956 484.035C107.661 480.358 100.013 478.52 90.0115 478.52H49.4181ZM95.7476 587.945C117.956 587.945 129.061 580.518 129.061 565.663C129.061 550.808 117.956 543.381 95.7476 543.381H49.4181V587.945H95.7476ZM185.923 492.639H213.5V610.448H185.923V492.639ZM199.822 473.225C194.821 473.225 190.629 471.68 187.247 468.592C183.864 465.356 182.172 461.385 182.172 456.678C182.172 451.972 183.864 448.074 187.247 444.986C190.629 441.75 194.821 440.132 199.822 440.132C204.822 440.132 209.014 441.677 212.397 444.765C215.78 447.707 217.471 451.457 217.471 456.017C217.471 460.87 215.78 464.988 212.397 468.371C209.161 471.607 204.969 473.225 199.822 473.225ZM297.789 559.927L277.272 579.341V610.448H249.695V446.751H277.272V545.587L334.411 492.639H367.504L318.306 542.057L372.137 610.448H338.603L297.789 559.927ZM495.744 552.205C495.744 554.117 495.597 556.838 495.303 560.368H402.865C404.482 569.046 408.674 575.958 415.44 581.106C422.352 586.107 430.883 588.607 441.031 588.607C453.974 588.607 464.637 584.342 473.021 575.811L487.802 592.799C482.507 599.123 475.815 603.903 467.726 607.139C459.637 610.375 450.518 611.992 440.369 611.992C427.427 611.992 416.028 609.419 406.174 604.271C396.32 599.123 388.672 591.99 383.23 582.871C377.935 573.605 375.288 563.163 375.288 551.544C375.288 540.072 377.861 529.776 383.009 520.657C388.304 511.391 395.584 504.185 404.85 499.037C414.116 493.889 424.559 491.315 436.178 491.315C447.65 491.315 457.872 493.889 466.843 499.037C475.962 504.038 483.022 511.171 488.023 520.437C493.17 529.555 495.744 540.145 495.744 552.205ZM436.178 513.377C427.353 513.377 419.852 516.024 413.675 521.319C407.645 526.467 403.968 533.379 402.644 542.057H469.491C468.314 533.527 464.711 526.614 458.681 521.319C452.65 516.024 445.149 513.377 436.178 513.377ZM588.419 456.017C601.803 456.017 613.422 458.223 623.276 462.635C633.277 467.047 640.925 473.372 646.22 481.608C651.515 489.845 654.162 499.625 654.162 510.95C654.162 522.128 651.515 531.909 646.22 540.292C640.925 548.528 633.277 554.853 623.276 559.265C613.422 563.677 601.803 565.884 588.419 565.884H553.561V610.448H524.881V456.017H588.419ZM587.095 541.616C599.596 541.616 609.083 538.968 615.554 533.674C622.026 528.379 625.262 520.804 625.262 510.95C625.262 501.096 622.026 493.521 615.554 488.227C609.083 482.932 599.596 480.284 587.095 480.284H553.561V541.616H587.095ZM724.084 491.315C741.439 491.315 754.676 495.507 763.795 503.89C773.061 512.127 777.694 524.628 777.694 541.395V610.448H751.661V596.108C748.278 601.256 743.425 605.227 737.1 608.021C730.923 610.669 723.422 611.992 714.597 611.992C705.773 611.992 698.051 610.522 691.433 607.58C684.814 604.492 679.666 600.3 675.99 595.005C672.46 589.563 670.695 583.459 670.695 576.694C670.695 566.104 674.592 557.647 682.387 551.323C690.33 544.852 702.758 541.616 719.672 541.616H750.117V539.851C750.117 531.615 747.616 525.29 742.616 520.878C737.762 516.466 730.482 514.259 720.775 514.259C714.156 514.259 707.611 515.289 701.14 517.348C694.815 519.407 689.447 522.275 685.035 525.952L674.225 505.876C680.402 501.169 687.829 497.566 696.507 495.066C705.184 492.565 714.377 491.315 724.084 491.315ZM720.333 591.916C727.246 591.916 733.35 590.372 738.645 587.283C744.086 584.048 747.911 579.488 750.117 573.605V559.927H721.657C705.773 559.927 697.831 565.148 697.831 575.591C697.831 580.591 699.816 584.563 703.787 587.504C707.758 590.446 713.274 591.916 720.333 591.916ZM839.339 509.847C847.281 497.493 861.253 491.315 881.256 491.315V517.569C878.903 517.127 876.77 516.907 874.858 516.907C864.121 516.907 855.738 520.069 849.708 526.393C843.678 532.571 840.662 541.542 840.662 553.309V610.448H813.085V492.639H839.339V509.847ZM952.744 559.927L932.227 579.341V610.448H904.65V446.751H932.227V545.587L989.367 492.639H1022.46L973.262 542.057L1027.09 610.448H993.558L952.744 559.927Z" fill="#297FFF"/>
<path d="M576.439 154.2H516.794" stroke="#297FFF" stroke-width="30.5107" stroke-miterlimit="10" stroke-linecap="round" stroke-linejoin="bevel"/>
<path d="M665.907 316.885L516.794 154.2" stroke="#297FFF" stroke-width="30.5107" stroke-miterlimit="10" stroke-linecap="round" stroke-linejoin="bevel"/>
<path d="M577.639 316.888C577.639 359.637 617.004 395.261 665.913 395.261C714.822 395.261 754.188 359.637 754.188 316.888C754.188 274.138 714.822 238.514 665.913 238.514C633.705 238.514 605.075 253.951 589.568 277.701" stroke="#297FFF" stroke-width="30.5107" stroke-miterlimit="10" stroke-linecap="round" stroke-linejoin="bevel"/>
<path d="M377.222 259.888C372.451 258.701 366.486 258.701 360.522 258.701C318.77 258.701 284.176 289.575 284.176 327.575C284.176 365.574 318.77 396.449 360.522 396.449C402.273 396.449 436.867 365.574 436.867 327.575" stroke="#297FFF" stroke-width="30.5107" stroke-miterlimit="10" stroke-linecap="round" stroke-linejoin="bevel"/>
<path d="M509.88 76.4877C527.996 70.4472 538.272 52.4435 532.832 36.2753C527.392 20.107 508.295 11.8968 490.179 17.9372C472.063 23.9777 461.787 41.9813 467.227 58.1496C472.668 74.3179 491.764 82.5281 509.88 76.4877Z" stroke="#297FFF" stroke-width="30.5107" stroke-miterlimit="10" stroke-linecap="round" stroke-linejoin="bevel"/>
<path d="M465.499 104.328C434.484 137.577 410.626 182.701 407.047 200.513" stroke="#297FFF" stroke-width="30.5107" stroke-miterlimit="10" stroke-linecap="round" stroke-linejoin="bevel"/>
<path d="M463.106 252.763C428.512 263.45 393.918 326.387 354.552 319.262L463.106 252.763Z" fill="#297FFF"/>
<path d="M463.106 252.763C428.512 263.45 393.918 326.387 354.552 319.262" stroke="#297FFF" stroke-width="30.5107" stroke-miterlimit="10" stroke-linecap="round" stroke-linejoin="round"/>
<path d="M408.244 201.7C436.874 198.137 484.59 214.762 500.098 236.137C520.377 264.636 500.098 302.636 478.625 327.573" stroke="#297FFF" stroke-width="30.5107" stroke-miterlimit="10" stroke-linecap="round" stroke-linejoin="round"/>
<path d="M535.88 244.452C541.809 244.452 546.616 239.667 546.616 233.764C546.616 227.862 541.809 223.077 535.88 223.077C529.95 223.077 525.144 227.862 525.144 233.764C525.144 239.667 529.95 244.452 535.88 244.452Z" fill="#297FFF"/>
</svg>
